<svg width="20" height="20" viewBox="0 0 20 20" fill="none" xmlns="http://www.w3.org/2000/svg">
<path fill-rule="evenodd" clip-rule="evenodd" d="M2.24355 6.09671C2.55833 5.95506 2.92833 6.09541 3.06998 6.41018C5.84887 12.5855 14.1512 12.5855 16.9301 6.41018C17.0717 6.09541 17.4417 5.95506 17.7565 6.09671C18.0713 6.23836 18.2116 6.60836 18.07 6.92314C17.3479 8.52768 16.3005 9.77256 15.0734 10.6578L16.7551 12.9652C16.9584 13.2441 16.8971 13.6351 16.6181 13.8384C16.3392 14.0417 15.9482 13.9803 15.7449 13.7014L14.0061 11.3155C12.9439 11.8678 11.7913 12.1857 10.625 12.2693V14.5833C10.625 14.9285 10.3452 15.2083 10 15.2083C9.65485 15.2083 9.37503 14.9285 9.37503 14.5833V12.2693C8.20876 12.1857 7.05617 11.8678 5.99399 11.3155L4.25511 13.7014C4.05181 13.9803 3.66086 14.0417 3.38191 13.8384C3.10295 13.6351 3.04163 13.2441 3.24493 12.9652L4.92661 10.6577C3.6996 9.77255 2.65213 8.52768 1.93008 6.92314C1.78843 6.60836 1.92878 6.23836 2.24355 6.09671Z" fill="#B2A897"/>
</svg>
