<svg width="20" height="20" viewBox="0 0 20 20" fill="none" xmlns="http://www.w3.org/2000/svg">
<path fill-rule="evenodd" clip-rule="evenodd" d="M3.06986 11.0899C5.84875 4.91455 14.1511 4.91455 16.93 11.0899C17.0716 11.4046 17.4416 11.545 17.7564 11.4033C18.0712 11.2617 18.2115 10.8917 18.0699 10.5769C14.8487 3.41887 5.15107 3.41887 1.92996 10.5769C1.78831 10.8917 1.92866 11.2617 2.24343 11.4033C2.55821 11.545 2.92821 11.4046 3.06986 11.0899ZM11.8749 11.6667C11.8749 10.6312 11.0354 9.79171 9.99991 9.79171C8.96437 9.79171 8.12491 10.6312 8.12491 11.6667C8.12491 12.7022 8.96437 13.5417 9.99991 13.5417C11.0354 13.5417 11.8749 12.7022 11.8749 11.6667ZM9.99991 8.54171C11.7258 8.54171 13.1249 9.94082 13.1249 11.6667C13.1249 13.3926 11.7258 14.7917 9.99991 14.7917C8.27402 14.7917 6.87491 13.3926 6.87491 11.6667C6.87491 9.94082 8.27402 8.54171 9.99991 8.54171Z" fill="#262D32"/>
</svg>
